<?xml version="1.0" encoding="utf-8"?>
<!-- Generator: Adobe Illustrator 24.0.2, SVG Export Plug-In . SVG Version: 6.00 Build 0)  -->
<svg version="1.1" id="Слой_1" xmlns="http://www.w3.org/2000/svg" xmlns:xlink="http://www.w3.org/1999/xlink" x="0px" y="0px"
	 viewBox="0 0 144 144" style="enable-background:new 0 0 144 144;" xml:space="preserve">
<style type="text/css">
	.st0{fill:#8C9EFF;}
	.st1{fill:#FFFFFF;}
</style>
<circle class="st0" cx="72" cy="72" r="60"/>
<path class="st1" d="M110.2,43.4c0,0-10.9-8.6-23.9-9.5l-1.2,2.3c11.7,2.9,17,7,22.6,12c-9.7-4.9-19.2-9.5-35.8-9.5
	s-26.1,4.6-35.8,9.5c5.6-5,12-9.6,22.6-12l-1.2-2.3c-13.6,1.3-23.9,9.5-23.9,9.5S21.6,61.1,19.5,95.9c12.3,14.2,31,14.3,31,14.3
	l3.9-5.2c-6.6-2.3-14.1-6.4-20.6-13.9C41.5,96.9,53.2,103,72,103s30.5-6.1,38.2-11.9c-6.5,7.4-14,11.6-20.6,13.9l3.9,5.2
	c0,0,18.7-0.1,31-14.3C122.4,61.1,110.2,43.4,110.2,43.4z M56.5,86.3c-4.6,0-8.4-4.3-8.4-9.5s3.7-9.5,8.4-9.5s8.4,4.3,8.4,9.5
	S61.1,86.3,56.5,86.3z M87.5,86.3c-4.6,0-8.4-4.3-8.4-9.5s3.7-9.5,8.4-9.5c4.6,0,8.4,4.3,8.4,9.5S92.1,86.3,87.5,86.3z"/>
</svg>
